<?xml version="1.0" encoding="UTF-8"?>
<svg id="_Слой_1" data-name="Слой_1" xmlns="http://www.w3.org/2000/svg" version="1.1" viewBox="72 0 360 360">
  <!-- Generator: Adobe Illustrator 30.1.0, SVG Export Plug-In . SVG Version: 2.1.1 Build 136)  -->
  <defs>
    <style>
      .st0 {
        fill: #060606;
      }

      .st1 {
        fill: #fd8a02;
      }

      .st2 {
        fill: transparent;
      }
    </style>
  </defs>
  <path class="st2" d="M0,360V0h504v360H0ZM285.96,288.77c2.21,3.97,3.93,7.76,5.56,11.86,1.22,3.07,1.85,6.16,2.32,9.43.1.7.48,1.36,1.03,1.44.61.09,1.22-.08,1.54-.65,1.73-3.05,2.94-6.23,4.1-9.55.88-2.52,1.75-4.89,2.32-7.5.61-2.79,1.08-5.49,1.87-8.23,1.08-3.81,1.59-7.52,2-11.47l.88-8.64c.38-3.74-.47-7.3-.63-11.04-.21-4.74-.41-9.25-1.29-13.93-.04-.22.37-.23.46-.18,3.63,2.29,5.23.96,10.12,4.07,7.21,4.58,8.75,3.53,14.68,6.45,3.53,1.73,6.77,3.85,10.61,4.89,11.23,3.06,11.76,5.78,19.79,8.78,2.17.81,4.19,1.55,6.21,2.7,1.28.73,4.63,2.55,5.63,1.2,1.2-1.61-2.07-3.16-4.23-5.9s-4.05-5.82-6.12-8.79c-2.37-3.41-4.47-6.76-6.42-10.44-2.55-4.8-9.33-17-12.57-20.7-2.3-2.63-4.46-5.24-6.97-7.65l-4.15-4c-2.43-2.34-4.81-4.69-7.65-6.49l-7.16-4.56c2.23-.52,4.25-1.48,6.5-1.81,5.22-.76,10.33-1.31,15.49-2.47,4.03-.9,10.75.89,14.89,1.76,2.14.45,4.19.75,6.35.9l12.78.9c.92.06,1.73-.38,1.96-1.16.16-.57-.15-1.42-.86-1.79l-10.31-5.44-10.66-4.98c-3.57-1.67-6.99-3.22-10.46-5.13-3.13-1.73-6.24-3.04-9.5-4.45-3.51-1.52-6.88-3.09-10.65-3.88-2.66-.55-5.37-.14-8.19.32.96-3.51,2.54-6.49,3.88-9.72,2.35-5.68,5.07-10.94,7.77-16.44l2.54-5.18c2.17-4.42,4.74-8.49,6.55-13.12l5.26-13.44c.94-2.4,1.24-4.95.32-7.35-1.6-4.17-9.38.03-11.84,1.54l-5.52,3.37c-2.59,1.59-4.94,3.29-7.42,5.05l-7.47,5.28c-4.3,2.73-8.12,5.82-12.16,8.92l-8.69,6.65-.15-10.33-1.02-13.97c-.17-2.33-.17-4.56-.52-6.89-.64-4.38-.23-8.56-.19-12.97l.17-17.75c.03-3.13,1.78-7.96.17-9.46-.9-.84-2.09-.25-2.66.66l-3.14,5.02c-1.65,2.64-3.43,5.01-4.94,7.78-3.96,7.26-7.45,14.55-11.06,22.03-4.05,8.4-8.56,18.86-11.11,27.8-1.12,3.93-2.56,7.63-3.48,11.75-1.91-1.54-2.35-3.4-4.5-5.88-2.99-3.44-5.21-7.25-7.68-11.07-2.13-3.3-3.66-6.64-5.61-10.01l-3.51-6.09c-1.35-2.33-2.1-11.03-1.6-14.29.1-.63-.41-1.22-.8-1.34-.51-.16-1.36-.12-1.59.48l-3.78,9.85c-.61,1.59-1.37,2.97-1.9,4.6l-4.65,14.33c-3.76,11.61-5.24,22.93-4.62,35.2l.38,7.39c.34,6.66,2.77,12.89,5.09,19.07l-5.67-3.46c-1.7-1.09-3.55-1.78-5.21-2.98-5.22-3.78-10.72-6.77-16.18-10.2l-9.75-6.12c-3.07-1.92-5.95-3.79-8.6-6.26-.94-.87-2.47-1.8-3.58-.96-.36.27-.52.78-.43,1.36.69,4.5,1.96,8.67,3.38,12.95,1.23,3.72,2.68,7.08,4.69,10.44,2.43,4.04,4.78,7.94,7.85,11.58s6.1,6.78,9.68,9.67c4.31,3.48,11.92,8.88,16.69,11.63,4.61,2.66,9.69,4.17,14.87,5.21,1.22.24,2.4.04,3.64.52-2.63,3.06-5.22,5.98-7.41,9.36l-5.67,8.73-5.58,8.56c-1.45,2.22-2.42,4.56-3.71,6.88-2.16,3.89-3.9,7.84-5.08,12.15l-2.47,9.03c-1.1,4.01-1.94,7.94-2.57,12.07l-1.92,12.56c-.11.73.42,1.43.89,1.58.5.17,1.2,0,1.5-.55.78-1.46,1.66-2.73,2.64-4.11,7.69-10.86,8.99-13.16,19.28-22,2.6-2.24,5.13-4.33,7.96-6.22,4.86-3.25,9.2-1.31,14.65-4.8,4.19-2.68,5.19-.94,8.92-3.55,4.18-2.92,5.94-3.09,9.29-6.76l6.85-7.49c2.76,7.86,5.91,8.88,9.23,17.39l2.75,7.06,1.7,4.82c2.04,5.78,4.51,11.1,7.55,16.55Z"/>
  <path class="st0" d="M285.96,288.77c-3.04-5.46-5.51-10.78-7.55-16.55l-1.7-4.82-2.75-7.06c-3.32-8.51-6.46-9.53-9.23-17.39l-6.85,7.49c-3.35,3.67-5.12,3.84-9.29,6.76-3.74,2.62-4.73.87-8.92,3.55-5.45,3.49-9.79,1.55-14.65,4.8-2.83,1.9-5.36,3.99-7.96,6.22-10.29,8.85-11.59,11.14-19.28,22-.97,1.37-1.85,2.64-2.64,4.11-.3.55-1,.72-1.5.55-.47-.16-1-.85-.89-1.58l1.92-12.56c.63-4.13,1.47-8.06,2.57-12.07l2.47-9.03c1.18-4.31,2.92-8.26,5.08-12.15,1.29-2.32,2.26-4.66,3.71-6.88l5.58-8.56,5.67-8.73c2.19-3.37,4.77-6.29,7.41-9.36-1.24-.48-2.42-.28-3.64-.52-5.18-1.03-10.26-2.55-14.87-5.21-4.77-2.75-12.38-8.15-16.69-11.63-3.58-2.89-6.72-6.16-9.68-9.67s-5.43-7.54-7.85-11.58c-2.01-3.36-3.46-6.72-4.69-10.44-1.42-4.28-2.69-8.45-3.38-12.95-.09-.57.08-1.09.43-1.36,1.1-.84,2.64.09,3.58.96,2.66,2.47,5.54,4.34,8.6,6.26l9.75,6.12c5.46,3.42,10.96,6.42,16.18,10.2,1.66,1.2,3.51,1.89,5.21,2.98l5.67,3.46c-2.31-6.19-4.75-12.42-5.09-19.07l-.38-7.39c-.62-12.27.86-23.6,4.62-35.2l4.65-14.33c.53-1.63,1.29-3.01,1.9-4.6l3.78-9.85c.23-.6,1.08-.64,1.59-.48.39.12.9.72.8,1.34-.51,3.26.25,11.96,1.6,14.29l3.51,6.09c1.95,3.37,3.48,6.72,5.61,10.01,2.47,3.82,4.69,7.63,7.68,11.07,2.15,2.48,2.59,4.33,4.5,5.88.92-4.12,2.36-7.82,3.48-11.75,2.56-8.93,7.06-19.39,11.11-27.8,3.61-7.48,7.1-14.77,11.06-22.03,1.51-2.77,3.29-5.14,4.94-7.78l3.14-5.02c.57-.91,1.76-1.5,2.66-.66,1.62,1.5-.14,6.33-.17,9.46l-.17,17.75c-.04,4.41-.45,8.59.19,12.97.34,2.33.35,4.56.52,6.89l1.02,13.97.15,10.33,8.69-6.65c4.04-3.09,7.86-6.18,12.16-8.92l7.47-5.28c2.48-1.76,4.82-3.46,7.42-5.05l5.52-3.37c2.46-1.51,10.24-5.71,11.84-1.54.92,2.4.62,4.95-.32,7.35l-5.26,13.44c-1.81,4.63-4.38,8.69-6.55,13.12l-2.54,5.18c-2.7,5.5-5.42,10.76-7.77,16.44-1.34,3.23-2.91,6.21-3.88,9.72,2.82-.46,5.53-.88,8.19-.32,3.78.79,7.14,2.36,10.65,3.88,3.26,1.41,6.38,2.72,9.5,4.45,3.46,1.91,6.88,3.46,10.46,5.13l10.66,4.98,10.31,5.44c.71.38,1.03,1.23.86,1.79-.23.78-1.04,1.22-1.96,1.16l-12.78-.9c-2.17-.15-4.22-.46-6.35-.9-4.14-.87-10.86-2.66-14.89-1.76-5.16,1.16-10.27,1.71-15.49,2.47-2.25.33-4.27,1.29-6.5,1.81l7.16,4.56c2.84,1.81,5.22,4.15,7.65,6.49l4.15,4c2.5,2.41,4.67,5.03,6.97,7.65,3.24,3.7,10.02,15.9,12.57,20.7,1.95,3.68,4.05,7.03,6.42,10.44,2.07,2.97,3.88,5.95,6.12,8.79s5.43,4.28,4.23,5.9c-1,1.35-4.35-.47-5.63-1.2-2.02-1.15-4.04-1.89-6.21-2.7-8.03-3.01-8.57-5.72-19.79-8.78-3.84-1.05-7.09-3.16-10.61-4.89-5.94-2.92-7.48-1.87-14.68-6.45-4.9-3.11-6.5-1.79-10.12-4.07-.08-.05-.5-.05-.46.18.88,4.67,1.08,9.19,1.29,13.93.17,3.74,1.02,7.31.63,11.04l-.88,8.64c-.4,3.95-.91,7.67-2,11.47-.78,2.74-1.25,5.45-1.87,8.23-.57,2.61-1.45,4.98-2.32,7.5-1.16,3.32-2.36,6.5-4.1,9.55-.32.57-.93.74-1.54.65-.55-.08-.93-.74-1.03-1.44-.47-3.27-1.11-6.37-2.32-9.43-1.63-4.1-3.35-7.89-5.56-11.86ZM225.37,104.16c.03-.85-.08-1.67-.35-2.66-.18.34-.22.7-.33,1.24-.24,1.18-.98,2.15-1.48,3.35-1.76,4.24-2.95,8.58-4.36,12.94l-1.42,4.38c-4.68,14.5-3.72,21.27-4.32,23.7l-.48,1.94c-.4,1.63.54,10.89.51,11.27-.2,2.39-.03,4.64.46,6.94,1.18,5.53,2.56,10.84,4.76,16.06.84,2,1.57,3.86,2.79,5.68.25.37.07,1.17-.46,1.43l-7.33-4.49-9.27-5.65c-5.69-3.47-10.89-7.39-16.84-10.45l-9.41-5.96c-2.82-1.78-5.4-3.5-8.31-5.76.94,4.82,3.65,13.03,5.87,17.1,2.66,4.88,5.58,9.39,8.99,13.76.47.6,1.12,1.03,1.5,1.62.96,1.49,7.35,7.4,9.01,8.58l9.04,6.49,5.77,3.67c4.3,2.74,9.37,4.1,14.38,5.03.92.17,1.81.06,2.61.25,1.08.27,1.91.21,3-.04.8-.19,1.68.18,2.35-.58-.6-1.35-.37-2.8-.49-4.26-.25-3.1-.65-2.81-.26-5.79.29-2.17.87-4.26.98-6.45.07-1.3.29-4.36.53-5.49l.84-3.95,1.56-8.33c.51-2.73,1.23-5.32,2.18-7.92,1.1-2.99,2.71-5.72,4.77-8.16,1.61-1.9,3.31-3.7,5.22-5.27l2.54-2.09c1.69-1.39,3.55-2.84,5.65-3.39l3.26-.86c6.07-1.59,7.87-.79,13.96-.14.98-.51,1.65-1.45,2.44-2.18l3.62-3.33,2.61-2.44c.9-.84,3.8-2.85,3.79-3.79-.01-1.44.33-2.62.44-3.92.27-3.24.19-6.5.03-9.74-.04-.71-.57-5.2-.68-6.77l-.22-3.15-.23-3.59c-.14-2.16-.36-3.97-.53-5.94l-.2-2.42c-.09-1.11-.07-1.89-.04-2.93l.19-7.07.19-20.45c0-.46.42-.79.04-1.32-2.36,3.14-4.56,6.29-6.37,9.9l-9.75,19.47-3,6.43c-1.24,2.66-2.46,5.23-3.5,7.99l-4.07,10.79-1.03,3.81c-1.15,4.26-3.67,9.72-3.91,14.78-.03.57-.63,1.01-.99,1.07-.55.09-1.23-.24-1.41-.84-.28-.93-.89-1.42-1.49-2.14l-1.19-1.44-3.39-4.79c-3.18-4.5-6.26-8.9-9.29-13.51-1.82-2.77-2.97-5.69-4.66-8.53l-2.52-4.22c-1.36-2.27-2.06-4.75-2.32-7.51ZM298.43,164.97c1.17,1.37,2.38,2.61,3.43,4.05l2.94,4.03c.93,1.28,2,2.33,2.59,4.01,1.51-.95,2.63-1.89,4.13-2.62l3.69-9.25,4.22-9.74c2.03-4.68,4.45-8.44,6.2-12.52.89-2.08,2.12-3.92,3.13-5.95l3.69-7.36c1.12-2.23,1.93-4.45,2.84-6.76l1.42-3.63c.96-2.46,2.04-4.81,2.61-7.41.2-.91,0-1.93.01-2.82.04-2.37-6.95,1.41-7.95,2.02l-6.67,4.11c-1.83,1.13-3.42,2.26-5.19,3.5l-12.39,8.71c-2.44,1.71-4.64,3.46-6.99,5.28l-5.66,4.38-6.66,5.11-3.95,3.26-2.57,2.44c-1.28,1.21-3.86,3.36-5.13,4.98,1.59.15,2.83,1.26,4.32,1.79,2.18.78,4.26,1.55,6.09,3.03.71.57,4.45,1.91,5.56,2.19,2.1.54,4.87,3.48,6.28,5.14ZM287.25,240.08c2.14-.47,5.79-.43,8.66-1.3,2.02-.62,3.89-1.04,5.97-1.5s3.69-5.78,4.31-7.19l.97-2.18c1.74-3.9,1.76-4.21,2.54-8.41l.53-2.84c.13-.71.45-4.03.53-4.97l.23-2.69.05-9.56c0-.91-.32-1.77-.43-2.66-.39-3.26-.8-6.39-1.75-9.54-.7-2.34-.91-5.02-2.31-7.05-.87-1.26-1.77-2.35-2.58-3.69-1.05-1.71-2.48-3.12-3.44-4.94-.04-.08-3.06-3.54-2.52-2.76-1.08-1.58-4.6-5.6-6.3-6.22-1.92-.7-3.87-1.23-5.7-2.18-1.36-.71-2.51-1.79-3.96-2.28-3.19-1.09-5.94-2.96-9.08-3.39l-4.26-.58c-.98-.13-1.79-.43-2.78-.36l-2.64.21c-4.29.34-8.71,1.84-11.99,4.69-1.46,1.27-2.9,2.43-4.3,3.83l-1.55,1.55c-3.58,3.6-5.69,8.24-6.83,13.16-.48,2.05-1.03,3.97-1.34,6.08-.42,2.87-.99,5.62-1.59,8.45-.46,2.18-.43.64-.68,4.07l-.21,2.9c-.37,5.05-1.18,3.22-.72,8.57s-.04,5.25,1.86,10.32l.99,2.63c.5,1.33,1.73,2.12,2.62,3.14l1.89,2.16c3.49,3.98,6.75,6.3,11.23,9.23,3.38,2.21,7.18,3.37,11.1,4.24,1.16.26,4.33,1.13,5.02.99,1.1-.22,3.99.37,5.1.58,1.72.33,5.99.45,7.86.3,3.65-.31,2.01-.06,5.49-.83ZM365.04,195.88c.73.57,2.56-.14,3.86.17-.31-.49-.84-.42-1.21-.66-1.99-1.29-4.2-2.19-6.44-3.25l-11.06-5.22c-2.36-1.12-4.64-2.18-6.88-3.44-1.33-.75-2.61-1.4-4.01-2.02l-10.15-4.48c-1.84-.81-6.37-2.38-8.28-2.24l-3.58.28c-1.8.14-3.23,1.33-4.79,2.09-1.14.55-2.54,1.31-2.81,2.68,1.53,5.71,3.67,11.83,3.78,17.86,1.46.45,2.66-.05,3.94-.43l4.08-1.21c2.36-.7,4.76-.96,7.21-1.22,3.62-.38,7.07-1.08,10.63-1.81,2.83-.58,8.38.09,11.29.74l5.52,1.23c5.52,1.23,4.18.15,8.89.92ZM365.89,263.35c0-.78-.66-1.32-1.1-1.97l-5.91-8.73c-1.28-1.89-2.49-3.74-3.58-5.75l-3.37-6.23-5.81-10.05c-1.58-2.73-3.28-5.25-5.4-7.58l-2.06-2.27-2.16-2.4c-2.42-2.69-3.32-2.84-5.3-5.32-.21-.26-6.86-5.93-7.68-6.43l-9.18-5.65c-.3-.18-.4-.51-.74-.34-.45.23-.02,3.65.01,4.33.09,1.76.14,3.51-.02,5.26l-.25,2.64c-.3,3.14-1.29,10.24-2.4,12.94l-3.29,7.94c-.48,1.16-1.19,2.08-1.49,3.31,1.08,1.02,2.42,1.78,3.85,2.06,6.44,1.26,9.42,4.51,11.85,5.4l7.57,2.78c5.84,2.15,7.37,4.6,15.58,6.72,3.14.81,5.98,2.1,8.76,3.75,3.84,2.26,7.66,4.17,12.11,5.58ZM216.27,268.93c1.96-1.72,3.93-3.18,5.95-4.68,6.79-5.05,10.59-2.31,15.9-5.71,4.65-2.97,6.55-1.47,9.26-3.69,3.22-2.65,5.48-2.5,9.09-6.75.71-.84,3.26-3.8,3.87-4.32.74-.63,1.45-1.32,1.77-2.38-3.89-.9-7.52-2.17-10.82-4.29s-6.49-4.44-9.43-7.09c-.92-.83-1.63-1.74-2.41-2.63l-1.69-1.94c-2.1-2.4-4.1-4.8-4.97-8.07-1.54.17-2.1,1.62-3.11,2.44-3.22,2.58-5.89,5.49-8.06,9.03-1.61,2.64-3.4,5.03-5.03,7.65l-3.04,4.9-2.32,3.44c-1.98,2.94-3.36,6.05-5,9.18-1.91,3.64-3.31,7.25-4.37,11.22l-2.37,8.86-1.76,8.11c-.37,1.73-.69,3.37-.85,5.14-.08.93-.16,1.94-.55,2.7.12.11.29.38.35.33s.31-.11.39-.22c3.86-5.46,8.94-12.53,14.1-16.82l1.58-1.31c1.32-1.1,2.13-1.87,3.53-3.1ZM295.93,305.73c1.06-2.08,1.53-4.07,2.31-6.09,1.12-2.88,1.93-5.71,2.49-8.77.67-3.67,2.92-11.16,3.04-13.78l.15-3.16c.08-1.59.22-3.17.51-4.73l.49-2.61c.52-2.79-.24-6.47-.44-9.09l-.22-2.85c-.09-1.12-.36-2.2-.19-3.38.12-1.32-.03-2.54-.21-3.83l-.99-7.43c-2.63.17-4.92,1.09-7.44,1.64-2.22.48-4.44.75-6.73.97-1.48.14-2.85.56-4.32.69l-2.42.21c-1.48.13-3.04.11-4.54,0l-3.33-.25c-1.44-.11-2.63-.55-4.13-.43-.88.07-1.82-.52-2.51-.15,1.03,2.69,2.25,4.99,3.9,7.17,1.98,2.6,4.36,7.64,5.58,10.76l2.15,5.49c.75,1.91,1.24,3.78,1.99,5.7,1.28,3.28,2.43,6.55,4.06,9.66l1.82,3.46c3.62,6.87,6.93,13.05,8.95,20.8Z"/>
  <path class="st1" d="M287.25,240.08c-3.48.76-1.84.52-5.49.83-1.86.16-6.14.03-7.86-.3-1.11-.21-4-.8-5.1-.58-.68.14-3.86-.74-5.02-.99-3.92-.87-7.73-2.04-11.1-4.24-4.48-2.93-7.74-5.25-11.23-9.23l-1.89-2.16c-.89-1.02-2.12-1.81-2.62-3.14l-.99-2.63c-1.91-5.07-1.42-5.05-1.86-10.32s.36-3.52.72-8.57l.21-2.9c.25-3.43.22-1.89.68-4.07.6-2.83,1.17-5.58,1.59-8.45.31-2.11.86-4.03,1.34-6.08,1.14-4.92,3.24-9.57,6.83-13.16l1.55-1.55c1.4-1.41,2.84-2.57,4.3-3.83,3.28-2.85,7.7-4.36,11.99-4.69l2.64-.21c.99-.08,1.8.22,2.78.36l4.26.58c3.14.43,5.89,2.3,9.08,3.39,1.45.5,2.61,1.58,3.96,2.28,1.83.95,3.78,1.48,5.7,2.18,1.7.62,5.21,4.64,6.3,6.22-.54-.78,2.48,2.68,2.52,2.76.96,1.82,2.39,3.23,3.44,4.94.82,1.33,1.71,2.42,2.58,3.69,1.4,2.03,1.61,4.72,2.31,7.05.95,3.15,1.35,6.28,1.75,9.54.11.89.44,1.75.43,2.66l-.05,9.56-.23,2.69c-.08.94-.4,4.26-.53,4.97l-.53,2.84c-.78,4.2-.8,4.51-2.54,8.41l-.97,2.18c-.63,1.41-2.34,6.75-4.31,7.19-2.08.46-3.95.89-5.97,1.5-2.87.87-6.52.83-8.66,1.3Z"/>
  <path class="st1" d="M224.69,102.74c.82-.38.13,1.53.68,1.42.25,2.76.96,5.23,2.32,7.51l2.52,4.22c1.69,2.84,2.84,5.76,4.66,8.53,3.03,4.6,6.1,9.01,9.29,13.51l3.39,4.79,1.19,1.44c.6.72,1.21,1.21,1.49,2.14.18.6.86.93,1.41.84.37-.06.96-.5.99-1.07.25-5.06,2.76-10.51,3.91-14.78l1.03-3.81,4.07-10.79c1.04-2.76,2.26-5.33,3.5-7.99l3-6.43,9.75-19.47c1.81-3.61,4-6.76,6.37-9.9.38.53-.03.87-.04,1.32l-.19,20.45-.19,7.07c-.03,1.05-.05,1.82.04,2.93l.2,2.42c.16,1.97.39,3.78.53,5.94l.23,3.59.22,3.15c.11,1.57.64,6.06.68,6.77.16,3.24.24,6.49-.03,9.74-.11,1.29-.45,2.47-.44,3.92,0,.94-2.89,2.94-3.79,3.79l-2.61,2.44-3.62,3.33c-.8.73-1.46,1.67-2.44,2.18-6.1-.65-7.89-1.45-13.96.14l-3.26.86c-2.1.55-3.97,2.01-5.65,3.39l-2.54,2.09c-1.91,1.57-3.61,3.37-5.22,5.27-2.06,2.44-3.67,5.17-4.77,8.16-.95,2.6-1.67,5.19-2.18,7.92l-1.56,8.33-.84,3.95c-.24,1.13-.46,4.19-.53,5.49-.12,2.2-.7,4.28-.98,6.45-.39,2.98,0,2.68.26,5.79.12,1.46-.11,2.91.49,4.26-.68.77-1.55.39-2.35.58-1.08.25-1.91.31-3,.04-.8-.2-1.69-.08-2.61-.25-5.02-.94-10.08-2.3-14.38-5.03l-5.77-3.67-9.04-6.49c-1.66-1.19-8.05-7.1-9.01-8.58-.38-.59-1.03-1.02-1.5-1.62-3.41-4.37-6.33-8.89-8.99-13.76-2.22-4.07-4.93-12.28-5.87-17.1,2.91,2.25,5.49,3.97,8.31,5.76l9.41,5.96c5.96,3.06,11.15,6.98,16.84,10.45l9.27,5.65,7.33,4.49c.53-.26.7-1.06.46-1.43-1.22-1.82-1.94-3.68-2.79-5.68-2.2-5.22-3.59-10.53-4.76-16.06-.49-2.31-.66-4.55-.46-6.94.03-.38-.91-9.64-.51-11.27l.48-1.94c.59-2.43-.37-9.2,4.32-23.7l1.42-4.38c1.41-4.36,2.6-8.7,4.36-12.94.5-1.19,1.23-2.17,1.48-3.35Z"/>
  <path class="st1" d="M298.43,164.97c-1.42-1.66-4.19-4.6-6.28-5.14-1.11-.28-4.85-1.62-5.56-2.19-1.83-1.48-3.91-2.25-6.09-3.03-1.49-.53-2.73-1.64-4.32-1.79,1.26-1.62,3.85-3.77,5.13-4.98l2.57-2.44,3.95-3.26,6.66-5.11,5.66-4.38c2.35-1.82,4.56-3.57,6.99-5.28l12.39-8.71c1.77-1.24,3.36-2.38,5.19-3.5l6.67-4.11c1-.61,7.98-4.39,7.95-2.02-.01.89.19,1.91-.01,2.82-.56,2.61-1.64,4.96-2.61,7.41l-1.42,3.63c-.9,2.31-1.72,4.53-2.84,6.76l-3.69,7.36c-1.02,2.03-2.24,3.86-3.13,5.95-1.75,4.08-4.17,7.84-6.2,12.52l-4.22,9.74-3.69,9.25c-1.49.74-2.61,1.67-4.13,2.62-.6-1.68-1.66-2.73-2.59-4.01l-2.94-4.03c-1.05-1.44-2.26-2.68-3.43-4.05Z"/>
  <path class="st1" d="M216.27,268.93c-1.4,1.22-2.2,1.99-3.53,3.1l-1.58,1.31c-5.15,4.29-10.24,11.36-14.1,16.82-.08.12-.34.17-.39.22s-.23-.22-.35-.33c.38-.76.46-1.77.55-2.7.15-1.77.47-3.41.85-5.14l1.76-8.11,2.37-8.86c1.07-3.97,2.47-7.58,4.37-11.22,1.64-3.13,3.02-6.25,5-9.18l2.32-3.44,3.04-4.9c1.63-2.63,3.42-5.02,5.03-7.65,2.17-3.54,4.84-6.45,8.06-9.03,1.01-.81,1.57-2.26,3.11-2.44.87,3.27,2.87,5.67,4.97,8.07l1.69,1.94c.78.89,1.48,1.8,2.41,2.63,2.95,2.65,6.06,4.93,9.43,7.09s6.93,3.39,10.82,4.29c-.32,1.06-1.03,1.75-1.77,2.38-.62.52-3.16,3.48-3.87,4.32-3.61,4.25-5.86,4.1-9.09,6.75-2.71,2.22-4.61.72-9.26,3.69-5.31,3.4-9.1.66-15.9,5.71-2.02,1.5-3.99,2.96-5.95,4.68Z"/>
  <path class="st1" d="M365.89,263.35c-4.45-1.41-8.27-3.32-12.11-5.58-2.79-1.64-5.63-2.93-8.76-3.75-8.21-2.12-9.74-4.57-15.58-6.72l-7.57-2.78c-2.43-.89-5.41-4.14-11.85-5.4-1.43-.28-2.78-1.05-3.85-2.06.3-1.23,1.01-2.15,1.49-3.31l3.29-7.94c1.12-2.7,2.11-9.8,2.4-12.94l.25-2.64c.16-1.75.12-3.5.02-5.26-.04-.67-.47-4.1-.01-4.33.34-.17.44.15.74.34l9.18,5.65c.82.5,7.47,6.17,7.68,6.43,1.98,2.48,2.88,2.63,5.3,5.32l2.16,2.4,2.06,2.27c2.12,2.33,3.82,4.85,5.4,7.58l5.81,10.05,3.37,6.23c1.09,2.01,2.3,3.86,3.58,5.75l5.91,8.73c.44.65,1.09,1.19,1.1,1.97Z"/>
  <path class="st1" d="M295.93,305.73c-2.02-7.75-5.33-13.92-8.95-20.8l-1.82-3.46c-1.64-3.11-2.78-6.37-4.06-9.66-.75-1.92-1.24-3.79-1.99-5.7l-2.15-5.49c-1.22-3.11-3.6-8.16-5.58-10.76-1.65-2.17-2.87-4.48-3.9-7.17.68-.37,1.62.22,2.51.15,1.5-.13,2.7.32,4.13.43l3.33.25c1.5.11,3.06.13,4.54,0l2.42-.21c1.47-.13,2.85-.55,4.32-.69,2.29-.22,4.51-.48,6.73-.97,2.51-.55,4.81-1.47,7.44-1.64l.99,7.43c.17,1.29.32,2.51.21,3.83-.17,1.17.11,2.26.19,3.38l.22,2.85c.2,2.63.96,6.3.44,9.09l-.49,2.61c-.29,1.56-.44,3.14-.51,4.73l-.15,3.16c-.13,2.62-2.37,10.11-3.04,13.78-.56,3.06-1.38,5.89-2.49,8.77-.78,2.02-1.26,4.01-2.31,6.09Z"/>
  <path class="st1" d="M367.69,195.39c.6.82-2.12.28-2.65.49-4.72-.76-3.37.32-8.89-.92l-5.52-1.23c-2.91-.65-8.46-1.32-11.29-.74-3.56.73-7.01,1.43-10.63,1.81-2.45.26-4.85.52-7.21,1.22l-4.08,1.21c-1.28.38-2.48.88-3.94.43-.11-6.03-2.24-12.16-3.78-17.86.26-1.36,1.66-2.12,2.81-2.68,1.56-.76,3-1.95,4.79-2.09l3.58-.28c1.91-.15,6.44,1.43,8.28,2.24l10.15,4.48c1.4.62,2.68,1.27,4.01,2.02,2.24,1.27,4.51,2.33,6.88,3.44l11.06,5.22c2.24,1.06,4.45,1.95,6.44,3.25Z"/>
  <path class="st2" d="M365.04,195.88c.54-.21,3.25.33,2.65-.49.37.24.9.17,1.21.66-1.3-.31-3.13.4-3.86-.17Z"/>
  <path class="st2" d="M225.37,104.16c-.55.12.14-1.8-.68-1.42.11-.54.15-.9.33-1.24.27.98.38,1.81.35,2.66Z"/>
</svg>